<mxfile host="app.diagrams.net" modified="2023-04-07T14:27:44.444Z" agent="Mozilla/5.0 (Macintosh; Intel Mac OS X 10_15_7) AppleWebKit/537.36 (KHTML, like Gecko) Chrome/111.0.0.0 Safari/537.36" etag="lgZApPWLB9C6wktHHHz6" version="21.1.1" type="github">
  <diagram name="Page-1" id="0Z0dmIoloKLWmDzg_9Ur">
    <mxGraphModel dx="1306" dy="756" grid="1" gridSize="10" guides="1" tooltips="1" connect="1" arrows="1" fold="1" page="1" pageScale="1" pageWidth="827" pageHeight="1169" math="0" shadow="0">
      <root>
        <mxCell id="0" />
        <mxCell id="1" parent="0" />
        <mxCell id="ZeKKyTA1GvqAnuSzezD5-3" value="AWS Cloud" style="sketch=0;outlineConnect=0;gradientColor=none;html=1;whiteSpace=wrap;fontSize=12;fontStyle=0;shape=mxgraph.aws4.group;grIcon=mxgraph.aws4.group_aws_cloud;strokeColor=#AAB7B8;fillColor=none;verticalAlign=top;align=left;spacingLeft=30;fontColor=#AAB7B8;dashed=0;" parent="1" vertex="1">
          <mxGeometry x="39" y="190" width="750" height="960" as="geometry" />
        </mxCell>
        <mxCell id="ZeKKyTA1GvqAnuSzezD5-4" value="Region" style="sketch=0;outlineConnect=0;gradientColor=none;html=1;whiteSpace=wrap;fontSize=12;fontStyle=0;shape=mxgraph.aws4.group;grIcon=mxgraph.aws4.group_region;strokeColor=#879196;fillColor=none;verticalAlign=top;align=left;spacingLeft=30;fontColor=#879196;dashed=1;" parent="1" vertex="1">
          <mxGeometry x="80" y="210" width="680" height="910" as="geometry" />
        </mxCell>
        <mxCell id="ZeKKyTA1GvqAnuSzezD5-5" value="VPC" style="sketch=0;outlineConnect=0;gradientColor=none;html=1;whiteSpace=wrap;fontSize=12;fontStyle=0;shape=mxgraph.aws4.group;grIcon=mxgraph.aws4.group_vpc;strokeColor=#879196;fillColor=none;verticalAlign=top;align=left;spacingLeft=30;fontColor=#879196;dashed=0;" parent="1" vertex="1">
          <mxGeometry x="120" y="490" width="600" height="590" as="geometry" />
        </mxCell>
        <mxCell id="poGFU8xNLzM71z-gRhvB-1" value="Availability Zone" style="fillColor=none;strokeColor=#147EBA;dashed=1;verticalAlign=top;fontStyle=0;fontColor=#147EBA;whiteSpace=wrap;html=1;" parent="1" vertex="1">
          <mxGeometry x="160" y="550" width="210" height="490" as="geometry" />
        </mxCell>
        <mxCell id="poGFU8xNLzM71z-gRhvB-3" value="Public subnet" style="points=[[0,0],[0.25,0],[0.5,0],[0.75,0],[1,0],[1,0.25],[1,0.5],[1,0.75],[1,1],[0.75,1],[0.5,1],[0.25,1],[0,1],[0,0.75],[0,0.5],[0,0.25]];outlineConnect=0;gradientColor=none;html=1;whiteSpace=wrap;fontSize=12;fontStyle=0;container=1;pointerEvents=0;collapsible=0;recursiveResize=0;shape=mxgraph.aws4.group;grIcon=mxgraph.aws4.group_security_group;grStroke=0;strokeColor=#248814;fillColor=#E9F3E6;verticalAlign=top;align=left;spacingLeft=30;fontColor=#248814;dashed=0;" parent="1" vertex="1">
          <mxGeometry x="180" y="610" width="170" height="140" as="geometry" />
        </mxCell>
        <mxCell id="Vlm_jPhdJ4eIxLxJds_A-11" value="" style="outlineConnect=0;dashed=0;verticalLabelPosition=bottom;verticalAlign=top;align=center;html=1;shape=mxgraph.aws3.vpc_nat_gateway;fillColor=#F58536;gradientColor=none;" vertex="1" parent="poGFU8xNLzM71z-gRhvB-3">
          <mxGeometry x="60" y="60" width="40" height="40" as="geometry" />
        </mxCell>
        <mxCell id="poGFU8xNLzM71z-gRhvB-6" value="Private subnet" style="points=[[0,0],[0.25,0],[0.5,0],[0.75,0],[1,0],[1,0.25],[1,0.5],[1,0.75],[1,1],[0.75,1],[0.5,1],[0.25,1],[0,1],[0,0.75],[0,0.5],[0,0.25]];outlineConnect=0;gradientColor=none;html=1;whiteSpace=wrap;fontSize=12;fontStyle=0;container=1;pointerEvents=0;collapsible=0;recursiveResize=0;shape=mxgraph.aws4.group;grIcon=mxgraph.aws4.group_security_group;grStroke=0;strokeColor=#147EBA;fillColor=#E6F2F8;verticalAlign=top;align=left;spacingLeft=30;fontColor=#147EBA;dashed=0;" parent="1" vertex="1">
          <mxGeometry x="190" y="845" width="160" height="130" as="geometry" />
        </mxCell>
        <mxCell id="poGFU8xNLzM71z-gRhvB-8" value="Public subnet" style="points=[[0,0],[0.25,0],[0.5,0],[0.75,0],[1,0],[1,0.25],[1,0.5],[1,0.75],[1,1],[0.75,1],[0.5,1],[0.25,1],[0,1],[0,0.75],[0,0.5],[0,0.25]];outlineConnect=0;gradientColor=none;html=1;whiteSpace=wrap;fontSize=12;fontStyle=0;container=1;pointerEvents=0;collapsible=0;recursiveResize=0;shape=mxgraph.aws4.group;grIcon=mxgraph.aws4.group_security_group;grStroke=0;strokeColor=#248814;fillColor=#E9F3E6;verticalAlign=top;align=left;spacingLeft=30;fontColor=#248814;dashed=0;" parent="1" vertex="1">
          <mxGeometry x="470" y="610" width="170" height="140" as="geometry" />
        </mxCell>
        <mxCell id="poGFU8xNLzM71z-gRhvB-9" value="Private subnet" style="points=[[0,0],[0.25,0],[0.5,0],[0.75,0],[1,0],[1,0.25],[1,0.5],[1,0.75],[1,1],[0.75,1],[0.5,1],[0.25,1],[0,1],[0,0.75],[0,0.5],[0,0.25]];outlineConnect=0;gradientColor=none;html=1;whiteSpace=wrap;fontSize=12;fontStyle=0;container=1;pointerEvents=0;collapsible=0;recursiveResize=0;shape=mxgraph.aws4.group;grIcon=mxgraph.aws4.group_security_group;grStroke=0;strokeColor=#147EBA;fillColor=#E6F2F8;verticalAlign=top;align=left;spacingLeft=30;fontColor=#147EBA;dashed=0;" parent="1" vertex="1">
          <mxGeometry x="470" y="845" width="160" height="130" as="geometry" />
        </mxCell>
        <mxCell id="poGFU8xNLzM71z-gRhvB-10" value="Availability Zone" style="fillColor=none;strokeColor=#147EBA;dashed=1;verticalAlign=top;fontStyle=0;fontColor=#147EBA;whiteSpace=wrap;html=1;" parent="1" vertex="1">
          <mxGeometry x="460" y="550" width="210" height="490" as="geometry" />
        </mxCell>
        <mxCell id="Vlm_jPhdJ4eIxLxJds_A-1" value="" style="sketch=0;pointerEvents=1;shadow=0;dashed=0;html=1;strokeColor=none;labelPosition=center;verticalLabelPosition=bottom;verticalAlign=top;align=center;fillColor=#505050;shape=mxgraph.mscae.intune.device_group" vertex="1" parent="1">
          <mxGeometry x="370" y="10" width="50" height="50" as="geometry" />
        </mxCell>
        <mxCell id="Vlm_jPhdJ4eIxLxJds_A-9" style="edgeStyle=orthogonalEdgeStyle;rounded=0;orthogonalLoop=1;jettySize=auto;html=1;" edge="1" parent="1" source="Vlm_jPhdJ4eIxLxJds_A-3" target="Vlm_jPhdJ4eIxLxJds_A-4">
          <mxGeometry relative="1" as="geometry" />
        </mxCell>
        <mxCell id="Vlm_jPhdJ4eIxLxJds_A-3" value="" style="outlineConnect=0;dashed=0;verticalLabelPosition=bottom;verticalAlign=top;align=center;html=1;shape=mxgraph.aws3.api_gateway;fillColor=#D9A741;gradientColor=none;" vertex="1" parent="1">
          <mxGeometry x="388" y="220" width="56" height="60" as="geometry" />
        </mxCell>
        <mxCell id="Vlm_jPhdJ4eIxLxJds_A-5" style="edgeStyle=orthogonalEdgeStyle;rounded=0;orthogonalLoop=1;jettySize=auto;html=1;entryX=0.5;entryY=0;entryDx=0;entryDy=0;" edge="1" parent="1" source="Vlm_jPhdJ4eIxLxJds_A-4" target="poGFU8xNLzM71z-gRhvB-10">
          <mxGeometry relative="1" as="geometry" />
        </mxCell>
        <mxCell id="Vlm_jPhdJ4eIxLxJds_A-6" style="edgeStyle=orthogonalEdgeStyle;rounded=0;orthogonalLoop=1;jettySize=auto;html=1;" edge="1" parent="1" source="Vlm_jPhdJ4eIxLxJds_A-4" target="poGFU8xNLzM71z-gRhvB-1">
          <mxGeometry relative="1" as="geometry" />
        </mxCell>
        <mxCell id="Vlm_jPhdJ4eIxLxJds_A-4" value="" style="outlineConnect=0;dashed=0;verticalLabelPosition=bottom;verticalAlign=top;align=center;html=1;shape=mxgraph.aws3.classic_load_balancer;fillColor=#F58534;gradientColor=none;" vertex="1" parent="1">
          <mxGeometry x="392" y="500" width="48" height="40" as="geometry" />
        </mxCell>
        <mxCell id="Vlm_jPhdJ4eIxLxJds_A-7" value="Auto Scaling group" style="points=[[0,0],[0.25,0],[0.5,0],[0.75,0],[1,0],[1,0.25],[1,0.5],[1,0.75],[1,1],[0.75,1],[0.5,1],[0.25,1],[0,1],[0,0.75],[0,0.5],[0,0.25]];outlineConnect=0;gradientColor=none;html=1;whiteSpace=wrap;fontSize=12;fontStyle=0;container=1;pointerEvents=0;collapsible=0;recursiveResize=0;shape=mxgraph.aws4.groupCenter;grIcon=mxgraph.aws4.group_auto_scaling_group;grStroke=1;strokeColor=#D86613;fillColor=none;verticalAlign=top;align=center;fontColor=#D86613;dashed=1;spacingTop=25;" vertex="1" parent="1">
          <mxGeometry x="174" y="830" width="480" height="150" as="geometry" />
        </mxCell>
        <mxCell id="Vlm_jPhdJ4eIxLxJds_A-15" value="" style="outlineConnect=0;dashed=0;verticalLabelPosition=bottom;verticalAlign=top;align=center;html=1;shape=mxgraph.aws3.elasticache;fillColor=#2E73B8;gradientColor=none;" vertex="1" parent="Vlm_jPhdJ4eIxLxJds_A-7">
          <mxGeometry x="96" y="50" width="24" height="30" as="geometry" />
        </mxCell>
        <mxCell id="Vlm_jPhdJ4eIxLxJds_A-14" value="" style="outlineConnect=0;dashed=0;verticalLabelPosition=bottom;verticalAlign=top;align=center;html=1;shape=mxgraph.aws3.rds;fillColor=#2E73B8;gradientColor=none;" vertex="1" parent="Vlm_jPhdJ4eIxLxJds_A-7">
          <mxGeometry x="96" y="110" width="20" height="20" as="geometry" />
        </mxCell>
        <mxCell id="Vlm_jPhdJ4eIxLxJds_A-23" value="" style="outlineConnect=0;dashed=0;verticalLabelPosition=bottom;verticalAlign=top;align=center;html=1;shape=mxgraph.aws3.elasticache;fillColor=#2E73B8;gradientColor=none;" vertex="1" parent="Vlm_jPhdJ4eIxLxJds_A-7">
          <mxGeometry x="366" y="40" width="24" height="30" as="geometry" />
        </mxCell>
        <mxCell id="Vlm_jPhdJ4eIxLxJds_A-12" value="" style="outlineConnect=0;dashed=0;verticalLabelPosition=bottom;verticalAlign=top;align=center;html=1;shape=mxgraph.aws3.vpc_nat_gateway;fillColor=#F58536;gradientColor=none;" vertex="1" parent="1">
          <mxGeometry x="530" y="670" width="40" height="40" as="geometry" />
        </mxCell>
        <mxCell id="Vlm_jPhdJ4eIxLxJds_A-16" style="edgeStyle=orthogonalEdgeStyle;rounded=0;orthogonalLoop=1;jettySize=auto;html=1;entryX=0.29;entryY=0.5;entryDx=0;entryDy=0;entryPerimeter=0;" edge="1" parent="1" source="Vlm_jPhdJ4eIxLxJds_A-13" target="Vlm_jPhdJ4eIxLxJds_A-15">
          <mxGeometry relative="1" as="geometry" />
        </mxCell>
        <mxCell id="Vlm_jPhdJ4eIxLxJds_A-17" style="edgeStyle=orthogonalEdgeStyle;rounded=0;orthogonalLoop=1;jettySize=auto;html=1;entryX=0;entryY=0.78;entryDx=0;entryDy=0;entryPerimeter=0;" edge="1" parent="1" source="Vlm_jPhdJ4eIxLxJds_A-13" target="Vlm_jPhdJ4eIxLxJds_A-14">
          <mxGeometry relative="1" as="geometry" />
        </mxCell>
        <mxCell id="Vlm_jPhdJ4eIxLxJds_A-13" value="" style="outlineConnect=0;dashed=0;verticalLabelPosition=bottom;verticalAlign=top;align=center;html=1;shape=mxgraph.aws3.ec2;fillColor=#F58534;gradientColor=none;" vertex="1" parent="1">
          <mxGeometry x="210" y="900" width="20" height="30" as="geometry" />
        </mxCell>
        <mxCell id="Vlm_jPhdJ4eIxLxJds_A-25" style="edgeStyle=orthogonalEdgeStyle;rounded=0;orthogonalLoop=1;jettySize=auto;html=1;entryX=0.29;entryY=0.5;entryDx=0;entryDy=0;entryPerimeter=0;" edge="1" parent="1" source="Vlm_jPhdJ4eIxLxJds_A-20" target="Vlm_jPhdJ4eIxLxJds_A-23">
          <mxGeometry relative="1" as="geometry" />
        </mxCell>
        <mxCell id="Vlm_jPhdJ4eIxLxJds_A-26" style="edgeStyle=orthogonalEdgeStyle;rounded=0;orthogonalLoop=1;jettySize=auto;html=1;entryX=0;entryY=0.5;entryDx=0;entryDy=0;entryPerimeter=0;" edge="1" parent="1" source="Vlm_jPhdJ4eIxLxJds_A-20" target="Vlm_jPhdJ4eIxLxJds_A-22">
          <mxGeometry relative="1" as="geometry" />
        </mxCell>
        <mxCell id="Vlm_jPhdJ4eIxLxJds_A-20" value="" style="outlineConnect=0;dashed=0;verticalLabelPosition=bottom;verticalAlign=top;align=center;html=1;shape=mxgraph.aws3.ec2;fillColor=#F58534;gradientColor=none;" vertex="1" parent="1">
          <mxGeometry x="490" y="900" width="20" height="30" as="geometry" />
        </mxCell>
        <mxCell id="Vlm_jPhdJ4eIxLxJds_A-22" value="" style="outlineConnect=0;dashed=0;verticalLabelPosition=bottom;verticalAlign=top;align=center;html=1;shape=mxgraph.aws3.rds;fillColor=#2E73B8;gradientColor=none;" vertex="1" parent="1">
          <mxGeometry x="540" y="940" width="20" height="20" as="geometry" />
        </mxCell>
      </root>
    </mxGraphModel>
  </diagram>
</mxfile>
